<svg width="24" height="24" viewBox="0 0 24 24" fill="none" xmlns="http://www.w3.org/2000/svg">
<path d="M24 12C24 18.6251 18.6251 24 12 24C5.37494 24 0 18.6251 0 12C0 5.37494 5.37494 0 12 0C18.6251 0 24 5.37494 24 12Z" fill="#062A50"/>
<path d="M15.551 11.0697L15.3517 12.6761C15.3155 12.9419 15.0921 13.1472 14.8203 13.1472H12.2234V19.8568C11.9516 19.881 11.6738 19.8931 11.39 19.8931C10.7619 19.8931 10.1459 19.8327 9.55405 19.7119V13.1412H7.55506C7.37388 13.1412 7.2229 12.9902 7.2229 12.809V10.7979C7.2229 10.6168 7.37388 10.4658 7.55506 10.4658H9.55405V7.45219C9.55405 5.60418 11.0457 4.10645 12.8877 4.10645H15.2189C15.4001 4.10645 15.551 4.25743 15.551 4.4386V6.44968C15.551 6.63085 15.4001 6.78184 15.2189 6.78184H13.552C12.8153 6.78184 12.2174 7.37972 12.2174 8.12255V10.4658H15.0196C15.3457 10.4658 15.5933 10.7496 15.551 11.0697Z" fill="white"/>
</svg>
