<svg width="24" height="24" viewBox="0 0 24 24" fill="none" xmlns="http://www.w3.org/2000/svg">
<path d="M24 12C24 18.6251 18.6251 24 12 24C5.37494 24 0 18.6251 0 12C0.00603926 5.37494 5.37493 0 12.006 0C18.6311 0 24 5.37494 24 12Z" fill="#062A50"/>
<path d="M15.2612 5.70703H8.75088C7.07197 5.70703 5.71313 7.06586 5.71313 8.74478V15.2551C5.71313 16.934 7.07197 18.2928 8.75088 18.2928H15.2612C16.9401 18.2928 18.2989 16.934 18.2989 15.2551V8.74478C18.2989 7.06586 16.9341 5.70703 15.2612 5.70703ZM17.2119 15.0377C17.2119 16.2335 16.2396 17.2058 15.0438 17.2058H8.96829C7.77252 17.2058 6.8002 16.2335 6.8002 15.0377V8.96219C6.8002 7.76642 7.77252 6.7941 8.96829 6.7941H15.0438C16.2396 6.7941 17.2119 7.76642 17.2119 8.96219V15.0377Z" fill="white"/>
<path d="M12.012 8.74512C10.2123 8.74512 8.75684 10.2006 8.75684 12.0003C8.75684 13.8 10.2123 15.2554 12.012 15.2554C13.8117 15.2554 15.2671 13.8 15.2671 12.0003C15.2671 10.2006 13.8057 8.74512 12.012 8.74512ZM12.012 14.1684C10.8162 14.1684 9.8439 13.196 9.8439 12.0003C9.8439 10.8045 10.8162 9.83218 12.012 9.83218C13.2078 9.83218 14.1801 10.8045 14.1801 12.0003C14.1801 13.196 13.2078 14.1684 12.012 14.1684Z" fill="white"/>
<path d="M15.4848 9.17997C15.845 9.17997 16.137 8.88795 16.137 8.52773C16.137 8.16751 15.845 7.87549 15.4848 7.87549C15.1245 7.87549 14.8325 8.16751 14.8325 8.52773C14.8325 8.88795 15.1245 9.17997 15.4848 9.17997Z" fill="white"/>
</svg>
