<svg width="512" height="420" viewBox="0 0 512 420" fill="white" xmlns="http://www.w3.org/2000/svg">
<path d="M475.54 0.873047H36.4613C16.3563 0.873047 0 17.2282 0 37.3343V382.666C0 402.771 16.3563 419.128 36.4613 419.128H475.54C495.645 419.128 512 402.771 512 382.666V37.3343C512 17.2282 495.644 0.873047 475.54 0.873047ZM313.885 219.536L186.513 308.859C184.768 310.083 182.72 310.804 180.593 310.945C178.466 311.085 176.342 310.639 174.451 309.655C172.559 308.672 170.975 307.188 169.868 305.366C168.762 303.544 168.178 301.453 168.178 299.322V120.679C168.177 118.547 168.762 116.456 169.868 114.634C170.974 112.812 172.559 111.328 174.45 110.344C176.342 109.36 178.466 108.915 180.594 109.055C182.721 109.196 184.768 109.918 186.513 111.142L313.885 200.463C315.417 201.538 316.668 202.965 317.531 204.625C318.394 206.285 318.845 208.129 318.845 210C318.845 211.871 318.394 213.714 317.531 215.374C316.668 217.034 315.417 218.462 313.885 219.536Z" fill="white"/>
</svg>
