<svg width="24" height="24" viewBox="0 0 24 24" fill="none" xmlns="http://www.w3.org/2000/svg">
<path d="M24 12C24 18.6251 18.6251 24 12 24C5.37494 24 0 18.6251 0 12C0 5.37494 5.37494 0 12 0C18.6311 0.00603925 24 5.37494 24 12Z" fill="#062A50"/>
<path d="M14.3793 15.0918V9.14914C14.3793 9.14914 15.0497 10.2664 17.4714 10.3328C17.5982 10.3389 17.707 10.2302 17.707 10.1033V8.42443C17.707 8.29761 17.6043 8.20098 17.4835 8.19494C15.6053 8.08624 14.7115 6.6489 14.6209 5.3263C14.6149 5.20551 14.5061 5.10889 14.3854 5.10889H12.4709C12.3441 5.10889 12.2414 5.21155 12.2414 5.33837V14.7898C12.2414 15.8165 11.4563 16.7103 10.4297 16.7586C9.25804 16.813 8.30384 15.8104 8.44878 14.6207C8.55145 13.7813 9.22784 13.0928 10.0613 12.978C10.2304 12.9539 10.3934 12.9539 10.5504 12.972C10.6893 12.9901 10.8101 12.8814 10.8101 12.7425V11.0576C10.8101 10.9368 10.7195 10.8341 10.5988 10.8281C10.3572 10.8099 10.1096 10.816 9.86197 10.8462C8.01395 11.0576 6.52226 12.5492 6.31692 14.4033C6.04516 16.8432 7.94752 18.9086 10.333 18.9086C12.5675 18.9086 14.3733 17.0968 14.3733 14.8683" fill="white"/>
</svg>
