<svg width="24" height="24" viewBox="0 0 24 24" fill="none" xmlns="http://www.w3.org/2000/svg">
<path d="M24 12C24 18.6251 18.6251 24 12 24C5.37494 24 0 18.6251 0 12C0.00603926 5.37494 5.37493 0 12.006 0C18.6311 0 24 5.37494 24 12Z" fill="#062A50"/>
<path d="M17.1757 6.91504H6.83043C5.8098 6.91504 4.98242 7.74242 4.98242 8.76305V15.2311C4.98242 16.2517 5.8098 17.0791 6.83043 17.0791H17.1696C18.1903 17.0791 19.0177 16.2517 19.0177 15.2311V8.76305C19.0237 7.74242 18.1963 6.91504 17.1757 6.91504ZM13.6669 12.447L10.7922 13.8843C10.46 14.0534 10.0675 13.8119 10.0675 13.4374V10.5627C10.0675 10.1944 10.46 9.95278 10.7922 10.1158L13.6669 11.5532C14.0292 11.7344 14.0292 12.2598 13.6669 12.447Z" fill="white"/>
</svg>
